<?xml version="1.0" encoding="utf-8"?>
<!-- Generator: Adobe Illustrator 16.0.4, SVG Export Plug-In . SVG Version: 6.00 Build 0)  -->
<!DOCTYPE svg PUBLIC "-//W3C//DTD SVG 1.1//EN" "http://www.w3.org/Graphics/SVG/1.1/DTD/svg11.dtd">
<svg version="1.1" id="Layer_1" xmlns="http://www.w3.org/2000/svg" xmlns:xlink="http://www.w3.org/1999/xlink" x="0px" y="0px"
	 width="200px" height="100px" viewBox="0 0 200 100" enable-background="new 0 0 200 100" xml:space="preserve">
<g>
	<path fill-rule="evenodd" clip-rule="evenodd" fill="#8C8D90" d="M100.9,1.5c-26.7,0-48.4,21.7-48.4,48.4
		c0,26.7,21.7,48.4,48.4,48.4s48.4-21.7,48.4-48.4C149.3,23.2,127.6,1.5,100.9,1.5L100.9,1.5z"/>
	<path fill-rule="evenodd" clip-rule="evenodd" fill="#FFFFFF" d="M100.9,3.3c-25.7,0-46.5,20.8-46.5,46.5
		c0,25.7,20.8,46.5,46.5,46.5s46.5-20.8,46.5-46.5C147.4,24.2,126.6,3.3,100.9,3.3L100.9,3.3z"/>
	<path fill-rule="evenodd" clip-rule="evenodd" fill="#8C8D90" d="M100.9,5.4c-24.6,0-44.5,19.9-44.5,44.5
		c0,24.6,19.9,44.5,44.5,44.5s44.5-19.9,44.5-44.5C145.4,25.3,125.5,5.4,100.9,5.4L100.9,5.4z"/>
	<path fill-rule="evenodd" clip-rule="evenodd" fill="#FFFFFF" d="M100.9,22.1c-15.4,0-27.8,12.5-27.8,27.8
		c0,15.4,12.5,27.8,27.8,27.8c15.4,0,27.8-12.5,27.8-27.8C128.7,34.5,116.2,22.1,100.9,22.1L100.9,22.1z"/>
	<polygon fill-rule="evenodd" clip-rule="evenodd" fill="#FFFFFF" points="68.4,63.6 65.7,62.2 62.9,63.7 63.4,60.6 61.2,58.2 
		64.3,58.2 65.6,55.2 67,58.2 70.1,58.2 67.9,60.6 68.4,63.6 	"/>
	<polygon fill-rule="evenodd" clip-rule="evenodd" fill="#FFFFFF" points="138.7,63.6 136,62.2 133.2,63.7 133.7,60.6 131.5,58.2 
		134.6,58.2 135.9,55.2 137.3,58.2 140.4,58.2 138.2,60.6 138.7,63.6 	"/>
	<path fill-rule="evenodd" clip-rule="evenodd" fill="#8C8D90" d="M123.4,54.5c0,0-1.5-1.5-3.8-1.5l0-1.6c0,0,2.4-0.1,4.4,1.6
		c0,0,0.8,0.9,2.3,0.5c0.1-0.8,0.2-1.6,0.2-2.5c-0.8,0.3-2.5,0.5-4.3-0.7c0,0-1.5-1.3-3.8-1.3l0-1.6c0,0,2.4-0.1,4.4,1.6
		c0,0,1.5,1.3,3.7,0.1c-0.4-14.1-12-25.2-26.1-24.9C86.3,24.5,75.1,36,75.3,50.1c2.3,1.2,3.9-0.2,3.9-0.2c2-1.9,4.4-1.8,4.4-1.8
		l0,1.6c-2.2,0.1-3.7,1.5-3.7,1.5c-1.9,1.4-3.6,1.1-4.4,0.8c0.1,0.8,0.2,1.7,0.3,2.5c1.5,0.4,2.4-0.6,2.4-0.6c2-1.9,4.4-1.8,4.4-1.8
		l0,1.6c-2.2,0.1-3.7,1.6-3.7,1.6c-0.9,0.9-2.2,0.9-2.7,0.9c0.2,0.7,0.4,1.4,0.6,2.1c0.9,0.1,1.9-0.7,1.9-0.7
		c1.8-1.9,3.7-1.7,3.7-1.7l0,1.6c-1.9,0.2-3.1,1.6-3.1,1.6c-0.8,0.7-1.5,0.9-1.9,0.9c0.3,0.6,0.5,1.2,0.9,1.8c0.6-0.2,1-0.6,1-0.6
		c1.8-1.6,3.1-1.5,3.1-1.5l0.3,1.3c-1.9,0.2-2.9,1.4-2.9,1.4c-0.3,0.3-0.6,0.5-0.9,0.6c0.3,0.6,0.7,1.1,1.1,1.6
		c0.7-0.7,2-1.8,3.4-1.6c0,0-0.3-0.8,0.1-1.8c0,0,0.9,0.2,1.6-0.1c0,0,1.7-1.1,1.8-1.5c0,0,0.4-0.7,0.4-1c0,0-0.1-2.6,1.5-4.2
		c2-2.1,0.6-4.8,0.6-4.8c-2.1-5.6,1.8-7.8,1.8-7.8c-2.7,4.1-0.7,7.3-0.7,7.3c1.7,3.1-0.2,5.1-0.2,5.1c-1.5,1.6-1.9,3.9-1.9,3.9
		c-0.7,2.6,1.4,5.1,1.4,5.1s-4.2,3.7-4.9,2.8c0,0-1-1.3-1.1-1.8c0,0-2.1,0.2-2.9,1.6c0.4,0.5,0.9,1.1,1.3,1.6c1-0.9,2.2-1,2.2-1
		l0.7,0.9c-1,0.3-1.6,0.8-1.9,1.1c0.4,0.4,0.8,0.7,1.2,1.1c0.7-0.9,1.7-0.9,1.7-0.9l0.8,0.8c-0.5,0.4-0.9,0.9-1.1,1.2
		c0.9,0.7,1.8,1.3,2.8,1.8c0.6-2.8,2.1-4.1,2.1-4.1c1.2-1.1,0.7-3.1,0.7-3.1c1.7,1.7-0.4,4-0.4,4c-0.8,1.1-1.2,2.7-1.4,3.7
		c0.5,0.2,0.9,0.4,1.4,0.6c-0.1-2.7,2.3-5.7,2.3-5.7c1.6-2.5-1.6-5.4-1.6-5.4c-4-4-0.6-7.3-0.6-7.3c2.8-3.3,1.3-6.1,1.3-6.1
		c-3.1-5.7,0.8-8.6,0.8-8.6c-2.2,4.9,0.1,8.2,0.1,8.2c1.8,3.2-1.2,7.2-1.2,7.2c-2.3,3.6,0.6,5.8,0.6,5.8c1.8,1.6,2.2,3,2.2,3
		c0.9,2.4-0.7,3.9-0.7,3.9c-1.6,2.2-1.8,4.2-1.6,5.5c0.5,0.2,1.1,0.4,1.6,0.5c-1-2.9,2.1-6.9,2.1-6.9c1.6-2.5-1.6-5.4-1.6-5.4
		c-4-3.9-0.6-7.3-0.6-7.3c2.6-2.5,0.5-6.4,0.5-6.4C91.4,43,95,40.2,95,40.2c-2.3,5.1,0.1,8.2,0.1,8.2c0.6,0.9,1.2,2.3,1.2,2.3
		c1,2.5-1.4,5.1-1.4,5.1c-2.3,3.3,0.6,5.8,0.6,5.8c1.8,1.6,2.2,3,2.2,3c0.9,2.4-0.7,3.9-0.7,3.9c-2.1,2.9-1.7,5.4-1.4,6.4
		c0.8,0.2,1.4,0.3,2.2,0.4c-0.1-0.1-0.2-0.2-0.2-0.2c-1.9-3.1,1-6.7,1-6.7c1.2-1.3,0.9-3.4,0.9-3.4c-0.2-2.2-2.5-4.1-2.5-4.1
		c-2.7-2.2-0.5-5-0.5-5c0.7-0.9,1.7-3,1.7-3c0.4-1.2,1.7-0.2,1.7-0.2c0.9,0.5,2.5,0,2.5,0s1.2-1.1,1.7,0.1c0,0,0.9,2,1.6,2.9
		c0,0,2.4,2.7-0.3,5c0,0-2.3,1.9-2.3,4.2c0,0-0.2,2.1,1,3.3c0,0,4,4.2,1.3,6.7c0,0-0.1,0-0.1,0.1c0.6-0.1,1.4-0.3,2-0.4
		c0.2-1,0.5-3.6-1.7-6.3c0,0-1.7-1.5-0.9-3.9c0,0,0.4-1.5,2.1-3.1c0,0,2.8-2.6,0.3-5.9c0,0-2.5-2.6-1.6-5.1c0,0,0.6-1.3,1.1-2.3
		c0,0,2.3-3.2-0.2-8.2c0,0,3.8,2.6,0.9,8.5c0,0-1.9,4,0.8,6.4c0,0,3.5,3.2-0.4,7.3c0,0-3.1,3-1.4,5.4c0,0,3.2,3.8,2.3,6.7
		c0.5-0.2,1.1-0.4,1.6-0.6c0.1-1.3-0.1-3.3-1.8-5.4c0,0-1.7-1.5-0.9-3.9c0,0,0.4-1.5,2.1-3.1c0,0,2.8-2.4,0.3-5.9
		c0,0-3.1-3.8-1.5-7.1c0,0,2.2-3.3-0.2-8.2c0,0,4,2.7,1.1,8.5c0,0-1.4,2.9,1.5,6.1c0,0,3.5,3.2-0.4,7.3c0,0-3.1,3-1.4,5.4
		c0,0,2.4,2.8,2.5,5.5c0.5-0.2,0.9-0.5,1.4-0.7c-0.2-0.9-0.6-2.5-1.5-3.5c0,0-2.2-2.3-0.5-4c0,0-0.5,2.1,0.8,3.1
		c0,0,1.5,1.2,2.2,3.9c0.9-0.6,1.8-1.2,2.7-1.9c-0.2-0.3-0.6-0.8-1.1-1.1l0.8-0.8c0,0,0.9,0,1.6,0.8c0.4-0.4,0.8-0.7,1.1-1.1
		c-0.3-0.3-0.9-0.7-1.8-1l0.7-1c0,0,1.2,0,2.2,0.8c0.4-0.5,0.9-1.1,1.3-1.6c-0.6-1.4-2.8-1.4-2.8-1.4c-0.1,0.5-1,1.8-1,1.8
		c-0.6,1-5-2.6-5-2.6s2-2.5,1.2-5.2c0,0-0.5-2.3-2.1-3.8c0,0-1.9-2-0.4-5.1c0,0,1.9-3.2-1-7.2c0,0,4,2.1,2.1,7.7
		c0,0-1.3,2.8,0.7,4.8c1.6,1.6,1.6,4.2,1.6,4.2c0,0.4,0.4,1,0.4,1c0.2,0.3,1.9,1.4,1.9,1.4c0.8,0.3,1.6,0.1,1.6,0.1
		c0.5,1,0.1,1.8,0.1,1.8c1.3-0.2,2.6,0.7,3.3,1.4c0.3-0.5,0.7-1.1,1-1.6c-0.3-0.1-0.5-0.2-0.8-0.5c0,0-1-1.3-2.9-1.3l0.3-1.3
		c0,0,1.3-0.1,3.2,1.4c0,0,0.3,0.4,0.9,0.5c0.3-0.6,0.5-1.2,0.8-1.8c-0.5,0-1.1-0.2-1.8-0.8c0,0-1.2-1.4-3.1-1.4l0-1.6
		c0,0,1.9-0.3,3.8,1.6c0,0,0.9,0.7,1.7,0.7c0.2-0.7,0.4-1.4,0.5-2.1C125.4,55.3,124.3,55.3,123.4,54.5L123.4,54.5z"/>
	<path fill-rule="evenodd" clip-rule="evenodd" fill="#FFFFFF" d="M111.7,40.4c0,0.1,0,0.1,0.1,0.1c3.6,2.4,4.8,5,4.8,5
		c0,0.1,0.1,0.1,0.2,0.1c1.5-0.3,2.8-0.1,2.8-0.1c1.2,0.2,2.6,1.3,2.6,1.4c1.7,1.2,3.6,0.4,3.7,0.4c0.1,0,0.1-0.1,0.1-0.2
		c-0.5-2.1-2.5-4-2.6-4.1c-2.3-2.5-1.6-6.5-1.6-6.5c0-0.1,0-0.1-0.1-0.2c0,0-0.1,0-0.2,0c-3.1,1.1-3.4,3.9-3.4,4.9
		c-3.6-2.6-6.3-0.9-6.3-0.9C111.7,40.3,111.7,40.4,111.7,40.4L111.7,40.4z"/>
	<path fill-rule="evenodd" clip-rule="evenodd" fill="#FFFFFF" d="M101,51.8c3.6-0.4,4.9-5.9,4.9-5.9c0.3-1.2-0.3-1.8-0.3-1.8
		c-0.5-0.1-0.9,0.1-0.9,0.1c-0.7,0.5-1.2,0-1.2,0C103.3,44,103,44,103,44c-0.5,0-0.6,0.3-0.6,0.3c0,0.4-0.3,0.3-0.3,0.3
		c-0.6-0.1-0.3-1.9-0.3-1.9c0-0.9,0.3-1,0.3-1c1-0.7,2.8-0.5,2.8-0.5c0.9,0,0.6-0.4,0.6-0.4c-1.3-3-4.7-2.6-4.7-2.6
		s-3.4-0.3-4.6,2.8c0,0-0.3,0.5,0.6,0.4c0,0,1.4-0.1,2.7,0.5c0,0,0.4,0.2,0.5,1c0,0,0.3,1.8-0.3,1.9c0,0-0.3,0.1-0.3-0.3
		c0,0-0.1-0.3-0.6-0.3c0,0-0.4,0-0.5,0.2c0,0-0.5,0.5-1.2,0.1c0,0-0.4-0.2-0.9,0c0,0-0.6,0.5-0.3,1.8C95.8,46.1,97.2,51.8,101,51.8
		L101,51.8z"/>
	<path fill-rule="evenodd" clip-rule="evenodd" fill="#FFFFFF" d="M98.5,42.4c0,0-1.2-0.9-2.4-0.1c-0.1,0.1-0.3,0.7,0.2,1
		c0.3,0.2,0.5-0.1,0.5-0.1c0,0,0.4-0.4,0.8-0.4c0.2,0,0.6,0.1,0.8,0.3c0,0,0.2,0.3,0.4,0C98.7,43.1,98.9,42.8,98.5,42.4L98.5,42.4z"
		/>
	<path fill-rule="evenodd" clip-rule="evenodd" fill="#FFFFFF" d="M102.9,43.1c0.2,0.2,0.4,0,0.4,0c0.2-0.2,0.6-0.3,0.8-0.3
		c0.4,0,0.8,0.4,0.8,0.4c0,0,0.1,0.3,0.5,0.1c0.5-0.3,0.3-0.9,0.2-1c-1.3-0.9-2.4,0.1-2.4,0.1C102.8,42.8,102.9,43.1,102.9,43.1
		L102.9,43.1z"/>
	<path fill-rule="evenodd" clip-rule="evenodd" fill="#8C8D90" d="M100.9,46.9c1.3,0.2,1-0.4,1-0.4c-0.1-0.6-1.1-0.5-1.1-0.5
		s-0.9,0-1,0.6C99.8,46.6,99.5,47.2,100.9,46.9L100.9,46.9z"/>
	<path fill-rule="evenodd" clip-rule="evenodd" fill="#8C8D90" d="M99.1,48.1c0.1,0.5,0.4,1.4,1.8,1.7c1.5-0.4,1.7-1.4,1.7-1.8
		c0-0.1-0.1-0.1-0.2-0.1c-0.7,0.4-1.6,0.3-1.6,0.3s-0.9,0.2-1.6-0.2C99.2,47.9,99.1,48,99.1,48.1L99.1,48.1z"/>
	<path fill-rule="evenodd" clip-rule="evenodd" fill="#FFFFFF" d="M97.2,35.2c-3.4-2.5-5.9-2.8-5.9-2.8c1.2,1.7,1.5,3.8,1.5,3.8
		c-2.3-1.3-4.4-1.3-4.4-1.3s2.5,2.3,2.7,5c10.6-6.5,18.8,0,18.8,0c0.2-2.6,2.5-5.4,2.5-5.4s-2.1,0.1-4.3,1.5c0,0,0.2-2.1,1.4-3.9
		c0,0-2.5,0.4-5.7,3.1l-1.5-3.9l2.2-2.3h-3.1l-1.5-3l-1.3,3h-3.1l2.3,2.5L97.2,35.2L97.2,35.2z"/>
	<path fill-rule="evenodd" clip-rule="evenodd" fill="#8C8D90" d="M98.4,35.1c-0.2,0.2-0.1,0.4,0.2,0.4l3.6-0.1
		c0.3,0,0.3-0.2,0.1-0.4l-1.7-1.6c-0.2-0.2-0.5-0.2-0.7,0L98.4,35.1L98.4,35.1z"/>
	<path fill-rule="evenodd" clip-rule="evenodd" fill="#FFFFFF" d="M89.8,40.7c0,0-2.8-1.7-6.3,1.1c-0.1-1-0.5-3.9-3.6-4.8
		c-0.1,0-0.1,0-0.2,0c0,0-0.1,0.1,0,0.2c0,0,0.9,4-1.4,6.6c-0.1,0.1-2,2-2.5,4.2c0,0.1,0,0.2,0.1,0.2c0.1,0,2,0.7,3.7-0.5
		c0,0,1.4-1.2,2.5-1.5c0,0,1.2-0.2,2.8,0c0.1,0,0.1,0,0.2-0.1c0,0,1.1-2.6,4.6-5.2c0,0,0.1-0.1,0.1-0.1
		C89.9,40.8,89.9,40.7,89.8,40.7L89.8,40.7z"/>
	<path fill-rule="evenodd" clip-rule="evenodd" fill="#FFFFFF" d="M123.5,29l2,2.8l3.9-2.7l-2.7,4.6l2.1,3l3.2-5.8l5.7,0.1
		c0,0-1.5-2.8-1.7-2.9l-4.9-0.1l2.8-2.8c0,0-1.3-2.1-2-2.8L123.5,29L123.5,29z"/>
	<path fill-rule="evenodd" clip-rule="evenodd" fill="#FFFFFF" d="M116.7,18.9c-1.2,2.8-3.1,3.2-6.2,2.2c-3.1-1.1-4.6-2.5-3.5-5.7
		l2.1-6l3.3,1.3l-2.1,6.1c-0.3,0.8,0.6,1.5,1.2,1.7c0.6,0.2,1.5,0.2,1.8-0.6l2.3-6.5l3.4,1.3L116.7,18.9L116.7,18.9z"/>
	<path fill-rule="evenodd" clip-rule="evenodd" fill="#FFFFFF" d="M95.3,8.6l6.4-0.2c1.6,0,3.2,0.4,3.3,2.7c0.1,1.8-0.6,2.3-2.3,2.8
		l0,0c1.7,0.1,2.5,0.5,2.5,2.6c0,2.4-1.7,2.9-4.1,3l-5.5,0.2L95.3,8.6L95.3,8.6z"/>
	<path fill-rule="evenodd" clip-rule="evenodd" fill="#8C8D90" d="M99,13l1.7-0.1c0.6,0,0.9-0.4,0.9-0.9c0-0.6-0.4-0.9-1-0.8
		L99,11.2L99,13L99,13z"/>
	<path fill-rule="evenodd" clip-rule="evenodd" fill="#8C8D90" d="M99.1,16.9l1.5-0.1c0.8,0,1.2-0.2,1.2-0.9c0-0.6-0.3-0.9-1-0.9
		l-1.7,0.1L99.1,16.9L99.1,16.9z"/>
	<path fill-rule="evenodd" clip-rule="evenodd" fill="#FFFFFF" d="M81.2,13.6l5.1-2.5c1.8-0.8,4-1.4,5.1,0.9
		c0.8,1.8,0.9,2.9-0.4,4.3l4.1,3.2l-3.9,1l-2.7-2.2l-1,0.4l1.2,2.8l-3.3,1.9L81.2,13.6L81.2,13.6z"/>
	<path fill-rule="evenodd" clip-rule="evenodd" fill="#8C8D90" d="M86.5,16.4l1.1-0.5c0.7-0.3,1.2-0.7,0.8-1.7
		c-0.3-0.6-0.7-0.8-1.4-0.4l-1.3,0.6L86.5,16.4L86.5,16.4z"/>
	<polygon fill-rule="evenodd" clip-rule="evenodd" fill="#FFFFFF" points="79.4,24.9 77.1,26.9 78.1,29.2 75.4,32.2 70.6,21.2 
		74.5,17.6 84.6,23.5 81.7,26 79.4,24.9 	"/>
	<polygon fill-rule="evenodd" clip-rule="evenodd" fill="#8C8D90" points="73.9,21.1 75.8,24.6 77.2,23.4 73.9,21.1 	"/>
	<polygon fill-rule="evenodd" clip-rule="evenodd" fill="#FFFFFF" points="62.6,33.8 67.5,25.4 69.7,26.6 68.1,29.1 74.7,33.3 
		73.2,36.2 66.2,32.1 64.4,34.9 62.6,33.8 	"/>
	<path fill-rule="evenodd" clip-rule="evenodd" fill="#FFFFFF" d="M61.7,35.7l1.6,0.9c-0.1,0.1-1,1.5-1.3,2.1
		c-0.2,0.3-0.3,0.6-0.3,0.8c-0.2,1.2,0.1,1.6,0.4,1.8c0.2,0.1,0.9,0.3,1.5-0.6c0-0.1,0.5-0.9,0.5-0.9c1.3-2.3,3.2-3.4,5.2-2.2
		c2,1.1,2.2,4.7,0.7,7.1c-0.5,0.8-0.9,1.4-1.4,1.9l-2.4-1.1c0.6-0.6,1.7-1.9,2.1-2.8c0.3-0.9,0.6-2-0.3-2.2c-0.6-0.1-1.1,0.4-1.4,1
		c0,0-0.5,1-0.6,1.1c-1,1.7-2.2,2.2-3.8,1.9c-2.3-0.5-3.2-2.5-2.2-5.6C60.2,38,61.1,36.4,61.7,35.7L61.7,35.7z"/>
	<path fill-rule="evenodd" clip-rule="evenodd" fill="#FFFFFF" d="M141.2,42.9l-1.8,0c0-0.1,0.1-1.8,0.1-2.5c0-0.3,0-0.6-0.1-0.9
		c-0.4-1.1-0.9-1.4-1.2-1.4c-0.2,0-1,0.2-1,1.3c0,0.1,0,1.1,0,1.1c0,2.7-1.1,4.5-3.5,4.5c-2.3,0-4.2-3-4.1-5.9
		c0-0.9,0.1-1.6,0.3-2.4l2.6-0.2c-0.2,0.8-0.6,2.5-0.4,3.4c0.1,0.9,0.5,2.1,1.4,1.8c0.6-0.2,0.7-0.9,0.8-1.6c0,0,0-1.1,0-1.2
		c0.1-2,0.9-3,2.4-3.5c2.2-0.6,4,0.6,4.6,3.8C141.3,40.1,141.4,42,141.2,42.9L141.2,42.9z"/>
	<path fill-rule="evenodd" clip-rule="evenodd" fill="#FFFFFF" d="M127.6,22.2c-0.5-1.5-0.9-1.8-1.5-2.2c-1.4-1-3.2-1.1-4.4,0.6
		c-1.1,1.6-0.1,3.8,1.2,4.5c0.4,0.2,1,0.5,1.8,0.5c0,0-0.8,1.8-0.9,1.8c-0.9,0-2.2-0.4-2.9-0.8c-2.7-1.7-4.1-5.2-1.7-8.4
		c0.2-0.3,0.5-0.6,0.8-0.9c2.3-2,5.3-2,7.4,0.2c0.5,0.6,1.4,2,1.8,2.9C129.2,20.5,127.6,22.2,127.6,22.2L127.6,22.2z"/>
	<path fill-rule="evenodd" clip-rule="evenodd" fill="#FFFFFF" d="M79.7,75.8c-0.6-1.4-1.1-1.8-1.7-2.1c-1.5-0.8-3.5-0.8-4.5,1.1
		c-0.9,1.7,0.5,3.9,1.8,4.4c0.4,0.2,1.1,0.3,1.8,0.2c0,0-0.5,2-0.6,2.1c-0.9,0.1-2.2-0.1-3-0.5c-2.9-1.4-4.6-4.8-2.6-8.2
		c0.2-0.3,0.4-0.7,0.7-1c2-2.2,5-2.6,7.4-0.6c0.6,0.5,1.6,1.9,2.1,2.7C81.2,73.9,79.8,75.8,79.7,75.8L79.7,75.8z"/>
	<path fill-rule="evenodd" clip-rule="evenodd" fill="#FFFFFF" d="M92.9,79.5l-2.5,10.7l3.4,0.8l0.8-3.8c0,0,3.5,0.5,4.3,0.4
		l0.2-2.5c0,0-3.2-0.1-4.1-0.6l0.6-2c0,0,3.5,0.7,4.9,0.5l0.2-2.6C100.7,80.5,97,80.6,92.9,79.5L92.9,79.5z"/>
	<path fill-rule="evenodd" clip-rule="evenodd" fill="#FFFFFF" d="M101.9,80.5l0.5,10.9l3.5-0.2l-0.3-3.8c0,0,3.5-0.5,4.2-0.8
		l-0.5-2.4c0,0-3.1,0.8-4.1,0.6l0-2c0,0,3.6-0.3,4.9-0.9l-0.5-2.6C109.6,79.2,106.2,80.4,101.9,80.5L101.9,80.5z"/>
	<path fill-rule="evenodd" clip-rule="evenodd" fill="#FFFFFF" d="M114.8,89L111,78.8c4-1.6,7.1-3.6,7.1-3.6l0.8,1.6
		c-1,1-4.4,2.3-4.4,2.3l0.6,2c1-0.1,3.7-1.8,3.7-1.8l1.2,2.2c-0.6,0.5-3.8,2-3.8,2l0.7,1.7c1.2-0.6,4.2-2.3,4.2-2.3l1.2,1.8
		C122.4,84.7,118.7,87.6,114.8,89L114.8,89z"/>
	<path fill-rule="evenodd" clip-rule="evenodd" fill="#FFFFFF" d="M126,83.1l-6.7-8.6c3.3-2.7,5.7-5.5,5.7-5.5l1.3,1.3
		c-0.7,1.2-3.5,3.5-3.5,3.5l1.2,1.7c0.9-0.4,3-2.8,3-2.8l1.8,1.7c-0.4,0.6-3,3.1-3,3.1l1.2,1.4c0.9-1,3.4-3.5,3.4-3.5l1.7,1.4
		C132,76.7,129.2,80.5,126,83.1L126,83.1z"/>
	<path fill-rule="evenodd" clip-rule="evenodd" fill="#FFFFFF" d="M84.4,76c-3.3,0-6,2.6-6,5.8c0,3.2,2.7,5.8,6,5.8
		c3.3,0,6-2.6,6-5.8C90.4,78.6,87.7,76,84.4,76L84.4,76z"/>
	<path fill-rule="evenodd" clip-rule="evenodd" fill="#8C8D90" d="M126.4,93.6c0-1.4,1.2-2.5,2.5-2.5c1.4,0,2.5,1,2.5,2.5
		c0,1.4-1.2,2.5-2.5,2.5C127.5,96.1,126.4,95.1,126.4,93.6L126.4,93.6z"/>
	<path fill-rule="evenodd" clip-rule="evenodd" fill="#FFFFFF" d="M128.9,95.7c1.1,0,2-0.9,2-2.1c0-1.2-0.9-2.1-2-2.1
		c-1.1,0-2,0.9-2,2.1C126.9,94.8,127.8,95.7,128.9,95.7L128.9,95.7z"/>
	<path fill-rule="evenodd" clip-rule="evenodd" fill="#8C8D90" d="M128.4,95.1H128v-2.9h1.1c0.7,0,1,0.2,1,0.8
		c0,0.5-0.3,0.7-0.7,0.8l0.8,1.3h-0.5l-0.8-1.2h-0.5V95.1L128.4,95.1z"/>
	<path fill-rule="evenodd" clip-rule="evenodd" fill="#FFFFFF" d="M128.9,93.5c0.4,0,0.7,0,0.7-0.5c0-0.4-0.3-0.4-0.6-0.4h-0.6v0.9
		H128.9L128.9,93.5z"/>
	<path fill-rule="evenodd" clip-rule="evenodd" fill="#8C8D90" d="M85.6,78.9c-1.3-0.5-2.8,0.5-3.4,2.2s-0.1,3.4,1.1,3.9
		s2.8-0.5,3.4-2.2C87.3,81.1,86.8,79.4,85.6,78.9L85.6,78.9z"/>
</g>
</svg>
