<?xml version="1.0" encoding="utf-8"?>
<!-- Generator: Adobe Illustrator 16.0.4, SVG Export Plug-In . SVG Version: 6.00 Build 0)  -->
<!DOCTYPE svg PUBLIC "-//W3C//DTD SVG 1.1//EN" "http://www.w3.org/Graphics/SVG/1.1/DTD/svg11.dtd">
<svg version="1.1" id="Layer_1" xmlns="http://www.w3.org/2000/svg" xmlns:xlink="http://www.w3.org/1999/xlink" x="0px" y="0px"
	 width="200px" height="100px" viewBox="0 0 200 100" enable-background="new 0 0 200 100" xml:space="preserve">
<g>
	<path fill="#8C8D90" d="M84.1,17.3c-1.7,0-6.5,1.4-7,2.4c-0.4,0.8-0.4,2.4-0.4,3.7c-0.1,3.3-0.2,5.8,0.1,8.8
		c2.9-0.4,5.5-0.7,8.4-0.9C85,27.7,85,21.5,85,18.6C85,17.3,84.8,17.2,84.1,17.3z"/>
	<path fill="#8C8D90" d="M71.2,23.3c-1,0-2.1,0.5-2.8,0.9c-1.3,0.6-2.7,1.4-3.4,2.5c-0.7,1-0.4,6.3-0.3,7.8c2.6-0.6,5.1-0.9,7.5-1.6
		c-0.1-1.8-0.1-4.5-0.1-6.3C72.2,25.5,72.2,23.3,71.2,23.3z"/>
	<path fill="#8C8D90" d="M140.3,47.9c0.3,0,0.6-0.8,0.6-2.3c0-3.3-0.4-3.9-0.7-3.9c-0.3,0-0.6,0.4-0.6,1.9
		C139.6,46.9,139.9,47.9,140.3,47.9z"/>
	<path fill="#8C8D90" d="M69.2,40.3c0.4,0,0.5-0.4,0.5-1.1c0-0.5-0.2-1-0.5-1c-0.1,0-0.2,0.2-0.2,0.8v0.5C69,40.1,69,40.3,69.2,40.3
		z"/>
	<path fill="#8C8D90" d="M97.1,17.8c0-0.8,0.2-2-0.1-2.6c-0.2-0.5-0.9-0.5-1.6-0.5c-1.7,0.1-5.6,0.3-6.1,1.3
		C89,16.5,89,17.1,89,17.8c0,1.4,0,6.1,0,7.2c0,1.7-0.1,4.3,0,6.1c3-0.3,5.6-0.2,8.1-0.2c0.1-1.2,0-3.6,0-5.3
		C97.1,23.1,97.1,20.3,97.1,17.8z"/>
	<path fill="#8C8D90" d="M54.8,37.5c1.6-0.6,3.3-1.2,4.8-1.7c-0.1-2.7-0.3-5.3-0.4-6.2c-0.1-1.2-0.4-5.2,0.2-6.1c0.6-1,5-1,6.6-1.2
		c0.7-0.1,1.5-0.1,2.1-0.2c1.2-0.3,0.7-3.9,2.1-4.5c0.6-0.2,1.3-0.2,2.1-0.2c1.5,0,3.9,0.1,5.2-0.3c2-0.7,1.2-4.3,3-5.2
		c0.7-0.3,1.5-0.4,2.3-0.6c1.6-0.3,3.2-0.5,4.9-0.8c3.8-0.6,8.8-1.7,12.4-1.4c3.4,0.2,6.6,1,9.8,1.5c2.1,0.3,4.1,0.6,6,1
		c0.4,0.1,0.7,0.2,1.1,0.3c0.7,0.3,0.9,0.7,1.2,1.4c0.3,0.8,0.7,2.7,1.1,3.3c0.7,1.1,4.7,0.9,6.4,1c0.8,0,1.4,0,2,0.3
		c1.1,0.8,0.8,4,1.8,4.4c0.6,0.2,1.6,0.2,2.3,0.2c1.6,0.1,5.8,0.2,6.4,1.1c0.4,0.6,0.2,3,0.2,4.5c-0.1,1.5-0.2,2.5-0.2,3.8
		c-0.1,1.4-0.2,3-0.3,4.2c0.8,0.2,2.5,0.8,3.7,1.2c1.4,0.5,3.3,1.3,4.2,1.7c0.3-1.6,0.4-3.3,0.5-5.1c0.4-3.4,0.1-8.4,0.1-11.6
		c0-1.4,0-3-0.4-3.6c-0.6-0.9-6-1.4-7.5-1.5c-0.8-0.1-1.5,0-2.1-0.3c-1.7-0.6-0.5-3.3-2.1-4c-1.6-0.7-5.7-0.7-7.5-1.3
		c-2.1-0.8-1.2-4.1-3-5.2c-0.6-0.3-1.5-0.4-2.3-0.6c-2.1-0.4-4-0.6-6.3-1c-3.4-0.6-6.8-1-10.3-1.5c-1.8-0.3-4.1-0.7-5.6-0.7
		c-2.5,0.1-6.5,0.7-9.2,1.1c-3.9,0.5-7.6,1-11.3,1.6c-1.7,0.3-4.3,0.4-5.2,1.1c-1.4,0.9-1,3.9-2.4,4.7c-2,1.2-6.1,0.5-8.1,1.8
		c-1.1,0.8-0.3,3.4-1.8,3.9c-0.7,0.2-1.4,0.1-2.2,0.2c-1.5,0.1-7,0.6-7.5,1.6c-0.2,0.4-0.3,1.8-0.3,2.7c-0.1,4.5-0.2,11.2,0.5,17.5
		C52.5,38.4,53.4,38,54.8,37.5z"/>
	<path fill="#8C8D90" d="M100.7,30.8c3.3,0,5.7,0.1,8.5,0.3c0-1.9,0-6.1,0-7.3c0-0.5,0.2-0.5,0.3-0.5c1.1-0.1,3.6,0.9,4.4,1.2
		c3.9,1.5,7.6,3.5,9.1,6.5c0.3,0.6,0.3,1.1,0.4,1.7c2.7,0.4,6.2,1.1,9.1,1.9c0.9-2.9-0.3-6-1.7-7.8c-2.4-3-12.8-9.4-23.4-11.4
		c-5.8-1.1-6.7-1.2-6.7,0.3c0,0.7,0,0.1,0,2C100.8,19.7,100.7,28.3,100.7,30.8z"/>
	<path fill="#8C8D90" d="M100.5,41c0.3,0,0.6-0.4,0.6-1.9c0-3.3-0.4-3.8-0.7-3.8c-0.3,0-0.6,0.4-0.6,1.9
		C99.8,40.4,100.2,41,100.5,41z"/>
	<path fill="#8C8D90" d="M62.7,41.3c-0.2,0-0.4,1.2-0.4,1.7h0.8C63.1,42.5,62.9,41.3,62.7,41.3z"/>
	<path fill="#8C8D90" d="M149.1,47c0-1.6,0-2.5,0-3.8c0-0.5,0.1-1.1,0-1.6c-0.3-0.1-1.1-0.5-0.9-0.5c-6.5-2.7-7.9-3.6-13.1-4.9
		C124,33.2,111,32,100.3,32c2.5,0-29.7-1.4-49.1,8c-0.9,0.4-2.7,1.5-2.6,1.5c-0.1,0.4-0.2,0.8-0.2,0.9c-0.1,0.7-0.1,3.1-0.1,6.5
		c0,1.4,0,5.3,0.2,5.7c0.5,1.2,1.8,1.8,1.8,1.8c1.1,0.6,3.1,1,4.5,1.2c0.8,0.2,2.1,0.1,2.3,0.8C61,68.7,68.9,77.5,68.9,77.5
		c8.2,9.4,22.3,18.6,30,20.3c0.7,0.2,2.2-0.6,3.3-1.1c2.4-1.1,4.2-1.4,12.4-6.8c14.3-9.8,20.9-19.5,25.1-28.3c0.7-1.5,1-2.1,1.5-3.3
		c0.3-0.6,1.9-0.4,2.6-0.4c1.9-0.1,3.5-0.4,4.5-1.4c1-1.1,1-2,1-2c0-0.5,0-1.6,0-2.4C149.1,50.5,149.1,48.6,149.1,47
		C149.2,47.1,149.1,46.9,149.1,47z M140.2,40.2c1.6,0,2.6,1.9,2.6,4.4c0,2.5-0.9,4.8-2.5,4.8c-1.6,0-2.6-2.2-2.6-4.8
		C137.7,42.1,138.5,40.2,140.2,40.2z M132.9,38.1c0.7,0.1,1.4,0.3,2,0.5c0.6,0.1,1.2,0.4,1.8,0.5c0.3,0.1,0.5,0.2,0.4,0.9l0,0.8
		c0,0.8,0,0.9-0.3,0.9c-0.2,0-0.3,0-0.3-0.3c-0.1-1-0.7-1.2-1.2-1.2c-0.4,0-0.5,0.3-0.5,1.3c0,0.6,0,0.8,0.2,0.8
		c0.5,0,0.2-0.8,0.7-0.8c0.2,0,0.3,0.1,0.3,0.8v2.2c0,0.4-0.1,0.5-0.3,0.5c-0.2,0-0.3-0.1-0.3-0.4c-0.1-0.8-0.3-0.9-0.5-0.9l0.1,1.5
		c0,0.5,0.2,0.8,0.4,0.9c1.3,0.3,1.2-0.7,1.6-0.7c0.2,0,0.3,0.2,0.3,0.6c0,0.2,0,0.3,0,0.5l-0.1,1.5c0.1,0.4-0.1,0.6-0.4,0.5
		c-0.6-0.1-1.2-0.4-1.9-0.6c-0.6-0.1-1.2-0.4-1.9-0.6c-0.2-0.1-0.3-0.2-0.3-0.5c0-0.6,0.1-0.6,0.3-0.7c0.2-0.1,0.2-0.5,0.2-3
		s0-3.6-0.2-3.7c-0.2-0.1-0.3-0.1-0.3-0.7C132.6,38.2,132.7,38,132.9,38.1z M127,39.1c0-0.9,0-1.1-0.1-1.2c-0.1-0.1-0.1,0-0.1-0.4
		c0-0.5,0-0.8,0.3-0.8c0.4,0,0.9,0.1,1.3,0.2c0.5,0.1,0.8,0.2,1.3,0.3c1.4,0.3,2.5,1.5,2.5,4c0,2.6-0.9,4.9-2.5,4.9
		c-0.5,0-0.9-0.2-1.4-0.3c-0.5-0.1-0.9-0.3-1.3-0.3c-0.2,0-0.2-0.4-0.2-0.6c0-0.4-0.1-0.5,0.1-0.6c0.1-0.1,0.1-0.3,0.1-1.2V39.1z
		 M123.9,37.7c0-0.7-0.3-0.3-0.3-1.1c0-0.5,0.1-0.6,0.4-0.6c0.3,0,0.5,0.1,0.8,0.2c0.3,0,0.6,0.1,0.8,0.2c0.3,0,0.4,0.2,0.4,0.7
		c0,0.8-0.3,0.3-0.3,1.1c0,0.7-0.1,1.5-0.1,2.4c0,0.9,0,2.2,0.1,2.9c0.1,1,0.5,0.2,0.5,1.2c0,0.5-0.1,0.6-0.3,0.6
		c-0.3,0-0.8-0.1-1.1-0.2c-0.3-0.1-0.7-0.2-1-0.2c-0.2,0-0.4,0-0.4-0.6c0-0.9,0.3-0.2,0.4-1.3c0-0.7,0-1.5,0-2.4
		C123.9,39.7,124,38.4,123.9,37.7z M117.8,35c0.4,0,0.8,0.1,1.2,0.1c0.5,0,0.9,0.1,1.3,0.2c0.2,0,0.3,0.1,0.3,0.6
		c0,0.3-0.1,0.5-0.2,0.6c-0.1,0.1-0.2,0.2-0.2,0.6c0,0.4,0.6,3.1,0.8,3.1c0.2,0,0.7-2.4,0.7-2.8c0-0.5-0.1-0.5-0.2-0.6
		c-0.2-0.1-0.2-0.2-0.2-0.7c0-0.3,0.1-0.5,0.2-0.5c0.3,0,0.6,0.1,0.9,0.1c0.3,0,0.5,0.1,0.8,0.2c0.2,0.1,0.3,0.1,0.3,0.6
		c0,0.4,0,0.4-0.3,0.6c-0.2,0.2-0.3,0.3-0.3,0.5l-1.5,4.9c-0.4,1.2-0.6,1.7-0.9,1.7c-0.3,0-0.5-0.4-0.8-1.7l-1.5-5.5
		c-0.1-0.5-0.2-0.6-0.3-0.7c-0.2-0.1-0.3-0.2-0.3-0.6C117.5,35.1,117.6,35,117.8,35z M110.9,34.2c0.6,0,1.3,0.1,1.9,0.2
		c0.6,0,1.2,0.1,1.8,0.2c0.3,0,0.3,0.2,0.3,0.9v1.1c0,0.8,0,0.9-0.2,0.9c-0.2,0-0.2,0-0.3-0.3c-0.1-1-0.7-1.2-1.2-1.2
		c-0.4,0-0.5,0.1-0.5,1.1c0,0.6,0,0.8,0.2,0.8c0.5,0,0.2-0.8,0.7-0.8c0.2,0,0.3,0.1,0.3,0.8V40c0,0.4,0,0.5-0.3,0.5
		c-0.2,0-0.3-0.1-0.3-0.4c-0.1-0.8-0.3-0.9-0.5-0.9l0,1.7c0,0.5,0.2,0.6,0.4,0.6c1.4,0,1.2-1.6,1.6-1.6c0.2,0,0.3,0.2,0.3,0.6
		c0,0.2,0,0.3,0,0.5l-0.1,1.9c0,0.5-0.1,0.5-0.4,0.5c-0.6,0-1.2-0.1-1.9-0.2c-0.6,0-1.2-0.2-1.9-0.2c-0.3,0-0.3-0.2-0.3-0.5
		c0-0.6,0.1-0.6,0.3-0.7c0.2-0.1,0.2-0.5,0.2-3s0-3.3-0.2-3.4c-0.2-0.1-0.3-0.1-0.3-0.7C110.6,34.4,110.7,34.2,110.9,34.2z
		 M103.7,35c-0.2-0.1-0.4-0.2-0.4-0.6c0-0.3,0-0.7,0.2-0.7c0.3,0,0.5,0,0.8,0c0.3,0,0.6,0,0.8,0c0.1,0,0.2,0.2,0.3,0.6
		c0.1,0.4,1.2,4,1.4,4c0.2,0,1.1-3.3,1.2-3.7c0.1-0.4,0.2-0.7,0.3-0.7c0.3,0,0.5,0,0.8,0c0.3,0,0.5,0,0.8,0c0.1,0,0.2,0,0.2,0.5
		c0,0.7-0.2,0.5-0.4,0.7c-0.1,0.1-0.1,0.3-0.1,0.6c0,1,0.1,2.5,0.1,4c0,0.7,0,1.5,0.2,1.6c0.2,0.1,0.3,0.3,0.3,0.8
		c0,0.5,0,0.6-0.3,0.6c-0.4,0-0.7-0.1-1-0.1c-0.3,0-0.7-0.1-1.1-0.1c-0.3,0-0.3-0.3-0.3-0.6c0-0.2,0-0.4,0.2-0.4
		c0.3-0.2,0.3-0.5,0.3-0.9c0-0.6,0-1.1,0-1.7c0-0.4,0-0.7-0.1-0.7c-0.1,0-0.2,0.3-0.3,0.7l-0.8,2.7c-0.2,0.7-0.3,0.8-0.5,0.8
		c-0.2,0-0.3-0.3-0.4-0.7l-0.9-2.7c-0.1-0.5-0.2-0.7-0.3-0.7c-0.1,0-0.1,0.3-0.1,0.5c0,0.5,0,1.1,0,1.6c0,0.3,0,0.7,0.3,0.8
		c0.2,0,0.3,0.1,0.3,0.5c0,0.4-0.1,0.7-0.3,0.7c-0.2,0-0.5,0-0.7,0c-0.2,0-0.5,0-0.7,0c-0.2,0-0.2-0.2-0.2-0.5
		c0-0.5,0.1-0.6,0.3-0.7c0.3-0.2,0.3-1.5,0.4-3.1c0-0.7,0-1.3,0-1.9C103.9,35.7,103.8,35.1,103.7,35z M100.5,33.8
		c1.6,0,2.5,1.8,2.5,4.3c0,2.5-0.9,4.3-2.5,4.3s-2.5-1.8-2.5-4.3C97.9,35.6,98.8,33.8,100.5,33.8z M91.6,35.1
		c-0.1-0.1-0.2-0.2-0.2-0.6c0-0.4,0.1-0.7,0.3-0.7c0.5,0,0.8-0.1,1.1-0.1c0.3,0,0.6,0,1,0c0.2,0,0.3,0.2,0.3,0.8
		c0,0.8-0.5,0-0.5,1.4c0,1,0,1.1,0.4,1.1h1c0.3,0,0.3-0.1,0.3-1.1c0-1.4-0.4-0.7-0.4-1.4c0-0.4,0.1-0.8,0.4-0.8c0.2,0,0.6,0,0.9,0
		c0.3,0,0.7,0,1,0c0.2,0,0.4,0.5,0.4,0.9c0,0.4-0.1,0.5-0.2,0.6C97,35.3,97,36,97,38.1c0,1.7,0,2.7,0.3,3c0.1,0.1,0.2,0.1,0.2,0.6
		c0,0.4,0,0.7-0.2,0.7c-0.4,0-0.7,0-1.1,0c-0.4,0-0.7,0-1,0c-0.2,0-0.4-0.3-0.4-0.8c0-0.3,0.1-0.4,0.2-0.5c0.2-0.2,0.2-0.1,0.2-1.5
		c0-0.7-0.1-0.5-0.2-0.5h-1.2c-0.2,0-0.2-0.1-0.2,0.5c0,1.5,0.1,1.5,0.4,1.6c0.3,0.2,0.3,0.2,0.3,0.6c0,0.4-0.1,0.7-0.3,0.7
		c-0.3,0-0.7,0-1.1,0c-0.4,0-0.8,0-1.3,0c-0.2,0-0.3-0.5-0.3-0.8c0-0.5,0.1-0.5,0.2-0.6c0.3-0.3,0.3-1.2,0.3-3
		C91.8,36,91.8,35.3,91.6,35.1z M83.7,35.6c-0.1,0-0.2-0.1-0.2-0.5c0-0.6,0.1-0.7,0.4-0.7c0.4,0,0.9-0.1,1.3-0.1
		c0.4,0,0.9-0.1,1.3-0.1c1.1,0,1.6,1.3,1.6,2.6c0,0.8-0.3,1.6-0.8,1.9l1.1,2.3c0.1,0.3,0.3,0.3,0.4,0.3c0.1,0,0.2,0.1,0.2,0.4
		c0,0.7-0.3,1-0.7,1c-0.2,0-0.4,0-0.6,0c-0.2,0-0.4,0-0.6,0c-0.2,0-0.3-0.4-0.3-0.7l-0.6-2.1c-0.2-0.6-0.2-0.8-0.3-0.8
		c-0.2,0-0.2,0.5-0.2,1c0,0.4,0,1.3,0.4,1.3c0.2,0,0.3,0.4,0.3,0.7c0,0.5-0.1,0.7-0.4,0.7c-0.3,0-0.7,0.1-1.1,0.1
		c-0.3,0-0.7,0.1-1,0.1c-0.3,0-0.3-0.6-0.3-1.1c0-0.3,0.1-0.4,0.3-0.5C83.9,41.4,84,40,84,39v-2.6C84,35.7,83.8,35.6,83.7,35.6z
		 M78.6,36.2c-0.2-0.1-0.3-0.1-0.3-0.7c0-0.3,0.1-0.5,0.3-0.5c0.6,0,1.3-0.2,2-0.2c0.6-0.1,1.4-0.2,2-0.2c0.3,0,0.4,0.6,0.4,1.4V37
		c0,0.8-0.2,0.9-0.4,0.9c-0.2,0-0.3,0-0.4-0.3c-0.1-1-0.7-1.2-1.2-1.2c-0.4,0-0.5,0.1-0.5,1.1c0,0.6,0,0.8,0.2,0.8
		c0.5,0,0.3-0.8,0.8-0.8c0.2,0,0.5,0.1,0.5,0.8v2.2c0,0.4-0.2,0.5-0.5,0.5c-0.2,0-0.3-0.1-0.4-0.4c-0.1-0.8-0.3-0.9-0.6-0.9l0,1.7
		c0,0.5,0.2,0.6,0.4,0.6c1.4,0,1.2-1.6,1.6-1.6c0.2,0,0.3,0.2,0.3,0.6c0,0.2,0,0.3,0,0.5l-0.1,1.5c0,0.5-0.1,0.5-0.4,0.5
		c-0.7,0-1.3,0.1-1.9,0.2c-0.6,0.1-1.2,0.3-2,0.3c-0.3,0-0.3-0.7-0.3-1c0-0.6,0.1-0.6,0.3-0.7c0.2-0.1,0.2-0.5,0.2-3
		C78.8,36.8,78.8,36.3,78.6,36.2z M73.2,37.8c0-1-0.6-0.2-0.6-1.2c0-0.4,0.1-0.6,0.3-0.6c0.1,0,0.3-0.1,0.4-0.1c0.1,0,0.3,0,0.4,0
		c0.2,0,0.2-0.2,0.5,0.3l2,2.9c0.2,0.4,0.4,0.5,0.4,0.5c0.1,0,0.1-0.4,0.1-0.6c0-0.3,0-1.7-0.2-1.9c-0.2-0.3-0.5,0-0.5-0.8
		c0-0.3,0-0.9,0.3-0.9c0.2,0,0.4-0.1,0.7-0.1c0.3,0,0.6-0.1,0.8-0.1c0.2,0,0.1,0.8,0.1,1.1c0,0.9-0.8,0.1-0.8,1.7v5
		c0,0.5,0.2,1.1-0.1,1.1c-0.2,0-0.2-0.1-0.3-0.3l-2.1-3c-0.2-0.3-0.3-0.5-0.3-0.5c-0.1,0-0.1,0.1-0.1,0.5c0,0.3,0,0.9,0.1,1.4
		c0.1,1.1,0.8,0.7,0.8,1.7c0,0.5-0.1,0.6-0.4,0.7c-0.3,0.1-0.6,0.1-0.9,0.1c-0.3,0-0.6,0.1-0.9,0.1c-0.2,0-0.2-0.3-0.2-0.7
		c0-1,0.5-0.7,0.6-2.3c0-0.6,0-1.2,0-2C73.2,38.9,73.2,38.3,73.2,37.8z M66.9,38c-0.1,0-0.1-0.1-0.1-0.5c0-0.6,0.2-0.6,0.4-0.7
		c0.5-0.1,1-0.2,1.4-0.3c0.5-0.1,0.8-0.2,1.2-0.2c1.1,0,1.7,1.6,1.7,2.9c0,0.8-0.3,1.6-0.8,1.9l1.1,2.3c0.1,0.3,0.3,0.3,0.4,0.3
		c0.1,0,0.2,0.1,0.2,0.4c0,0.7-0.3,0.8-0.7,0.9c-0.2,0-0.4,0.1-0.6,0.1c-0.2,0-0.3,0.1-0.5,0.1c-0.2,0-0.3-0.4-0.3-0.6l-0.6-2.1
		c-0.2-0.6-0.2-0.8-0.3-0.8c-0.2,0-0.2,0.5-0.2,1c0,0.4,0,1.5,0.3,1.6c0.2,0,0.3,0.4,0.3,0.7c0,0.5,0,0.5-0.3,0.5
		c-0.3,0.1-0.7,0.3-1.1,0.3C67.8,45.8,67.4,46,67,46c-0.3,0-0.4-0.1-0.4-0.7c0-0.3,0-0.4,0.1-0.5c0.2-0.2,0.2-2.3,0.2-3.3v-2.6
		C67,38.2,67,38.1,66.9,38z M63.2,37.8c0.5-0.1,0.5-0.3,0.7,0.4l1.6,6.2c0.1,0.2,0.2,0.6,0.4,0.8c0.1,0.1,0.2,0.1,0.2,0.5
		c0,0.5-0.1,0.6-0.5,0.7c-0.3,0.1-0.6,0.2-1.1,0.3c-0.5,0.1-0.7,0.2-1,0.2c-0.2,0-0.3-0.3-0.3-0.6c0-0.4,0-0.4,0.2-0.6
		c0.1-0.2,0.2-0.9,0.2-1.2c0-0.2-0.1-0.5-0.2-0.5h-1.1c-0.2,0-0.2,0.3-0.2,0.6c0,0.2,0,1.4,0.1,1.5c0.2,0.1,0.2,0.1,0.2,0.6
		c0,0.4-0.1,0.5-0.4,0.6c-0.2,0.1-0.5,0.2-0.8,0.3c-0.2,0.1-0.4,0.2-0.7,0.2c-0.2,0-0.3-0.1-0.3-0.6c0-0.4,0.1-0.5,0.2-0.6
		c0.3-0.2,0.5-1.9,0.6-2.4l1.3-5.4C62.6,38,62.6,37.9,63.2,37.8z M53.7,40.8c0.4-0.1,0.5-0.2,0.9-0.3c0.3-0.1,0.6-0.2,0.9-0.3
		c0.3-0.1,0.3,0.1,0.3,0.6c0,0.5-0.2,0.2-0.2,0.6c0,0.3,0.2,1.4,0.3,2.1c0.1,0.6,0.2,1.1,0.3,1.1c0.1,0,0.5-1.5,0.5-2
		c0-0.8-0.4-1.4-0.4-2.1c0-0.5,0-0.6,0.2-0.6c0.4-0.1,0.7-0.3,1.1-0.3c0.3-0.1,0.7-0.3,1-0.2c0.4,0,0.3,0.7,0.2,1.1
		c-0.2,0.8-0.3,1.1-0.3,1.6c0,0.3,0.1,0.9,0.2,1.4c0.1,0.6,0.2,1.1,0.3,1.1c0.2,0,0.5-2.1,0.5-2.3c0-0.7,0.1-2,0.1-2.7
		c0-0.6,0.1-0.6,0.3-0.7c0.3-0.1,0.6-0.2,0.8-0.2c0.3-0.1,0.5-0.2,0.7-0.2c0.2,0,0.2,0.1,0.2,0.5c0,0.4-0.1,0.9-0.3,1.1
		c-0.2,0.2-0.6,1.8-0.7,2l-1.4,5.4c-0.2,0.7-0.3,1.2-0.7,1.2c-0.3,0-0.4,0-0.5-0.5l-0.6-2.6c-0.1-0.4-0.2-0.7-0.2-0.7
		c-0.1,0-0.1,0.4-0.2,0.7l-0.7,3.3c-0.1,0.4-0.3,0.8-0.5,0.8c-0.3,0-0.4-0.3-0.5-0.9l-1.2-6c-0.1-0.6-0.3-0.7-0.4-0.8
		c-0.1-0.1-0.1-0.3-0.1-0.5C53.3,41,53.4,40.9,53.7,40.8z M142.7,56.4c-1.2,0.1-0.4-2.6-0.4-2.6c-1.2-0.6-3.6-1.7-7.2-2.9
		c-0.4,1.2-1.2,3.7-1,3.2c-1.2,3.6-4.9,12.1-11.4,19.1c-5.8,6.2-14.6,13.3-22.5,16.9c0,0-0.9,0.4-1.9,0.2c-1.8-0.3-4.4-1.6-9-4.9
		c-4.4-3.1-10.2-7.6-16.2-14.6c-6.4-7.4-9.6-17.6-10.5-20.4c-4.1,1.3-6.4,2.5-7,3c0.5,1.2,0.5,1.7,0,1.9c-1.5,0.6-3-0.6-3-1.6
		c0-0.5,3.5-2.8,11-4.9c9-2.8,20.9-4.5,34.8-4.5c11.2,0,19.6,1.2,28.8,3.3c2.8,0.6,5.3,1.2,7.4,1.9c0.3,0.1,0.6,0.2,1,0.3
		c2.9,0.8,5.4,1.9,6.8,2.5c0.8,0.3,1.3,0.7,1.6,1c0.4,0.2,0.7,0.4,0.8,0.5C145.7,54.5,144.6,56.3,142.7,56.4z"/>
	<path fill="#8C8D90" d="M129.4,44.5c0.8,0,0.9-1.8,0.9-2.9c0-1.7-0.5-3-1.1-3c-0.1,0-0.2,0.4-0.2,1.7l0,2.7
		C129,44.1,129.1,44.5,129.4,44.5z"/>
	<path fill="#8C8D90" d="M86,37.9c0.4,0,0.4-0.4,0.4-1.1c0-0.5-0.1-1-0.4-1c-0.1,0-0.1,0.2-0.1,0.8v0.5C86,37.7,85.9,37.9,86,37.9z"
		/>
	<path fill="#8C8D90" d="M127.7,48.8c-6.8-1.6-15.8-2.9-27.1-3.1c0,0.2-0.1,0.5-0.1,0.9c0.1,4.1,0,13.8,0.1,20.2
		c0.1,4.1-0.1,10.1-0.1,13.7c0,3.4,0,3.9,0.5,4.2c0.8,0.2,1.1-0.1,1.7-0.5c10.9-6.4,22-17.4,25.4-29.2c0.5-1.8,0.7-3.7,0-5.6
		C128.1,49.3,127.8,49,127.7,48.8z M112.5,66.6c-1.2,1.3-2.5,2.7-3.6,3.9c0-2,0.3-17.5,0.3-18.4c0.2-1.1,3.9-2.5,5.4-2.5
		c2.4,0,4.1,0.9,4.7,2.6C121.2,57.5,114.5,64.4,112.5,66.6z"/>
	<path fill="#8C8D90" d="M88.5,51.1c0,1.5,0,4.2-0.2,5.4c-0.5-0.6-1.6-7-2.2-10.4c-3,0.2-5.8,0.6-8.3,0.9c0.1,1.1,0.3,2-0.8,2.8
		c-0.2,0.1-0.5,0.4-0.7,0.5c-0.6,0.1-0.7-0.6-0.9-1c-0.2-0.6-0.4-1.1-0.6-1.8c-2.9,0.5-5.5,1.1-7.7,1.6c0,0.2,0.1,0.4,0.2,0.6
		c0.8,2.6,2.4,6.8,3.9,9.6c0.9,1.6,1.9,3.2,3,4.2c2.6,2.4,4.4-4.4,5.4-5.4c0.6,1,1,2.2,1.4,3.3c0.8,2.1,1.7,4.1,2.6,6.1
		c2.4,5.7,5.3,10.5,9.2,14.7c0.4,0.5,2.4,2.6,3.1,2.5c0.4-0.1,0.6-0.7,0.7-1c0.3-1.5,0-3,0-4.5c0-4,0.2-9.1,0.2-13.6
		c0-6.6,0-12.8,0-20c-2.9,0-5.7,0.1-8.3,0.3C88.5,47.3,88.5,49.3,88.5,51.1z"/>
</g>
</svg>
