<?xml version="1.0" encoding="utf-8"?>
<!-- Generator: Adobe Illustrator 16.0.4, SVG Export Plug-In . SVG Version: 6.00 Build 0)  -->
<!DOCTYPE svg PUBLIC "-//W3C//DTD SVG 1.1//EN" "http://www.w3.org/Graphics/SVG/1.1/DTD/svg11.dtd">
<svg version="1.1" id="Layer_1" xmlns="http://www.w3.org/2000/svg" xmlns:xlink="http://www.w3.org/1999/xlink" x="0px" y="0px"
	 width="200px" height="100px" viewBox="0 0 200 100" enable-background="new 0 0 200 100" xml:space="preserve">
<g>
	<path fill-rule="evenodd" clip-rule="evenodd" fill="#8C8D90" d="M72.5,53.3c-0.6,0.9-1.4,2.2-2.3,3c-2.6,2.7-6.7,4.3-11.3,4
		c-8.4-0.6-13.6-8.3-13.9-17.1c-0.3-9.2,4.2-16.5,14.4-16.5c7.4,0,10.5,4.9,13.5,9.8c0.5-1.1,0-2.5-0.1-3.8
		c-0.2-1.3-0.2-2.6-0.4-3.9c-0.5-0.4-0.7,0.4-1.5,0.3c-0.6-0.1-1.4-0.7-2.3-1.1C66.4,27,63.5,26,60.6,26c-1.2,0-2.4,0-3.5,0
		c-10.2,1-16.5,8.9-15.8,20.6C41.9,56,49,62.3,59.7,61.9c4.8-0.2,9.5-1.5,12.6-4.2c0.3-1.8,0.9-3.1,1-5.1
		C72.8,52.4,72.7,53.1,72.5,53.3z"/>
	<path fill-rule="evenodd" clip-rule="evenodd" fill="#8C8D90" d="M188.5,26.1c-0.6,0-1.7-0.4-2.1,0.1c0.7,0.9,2.8,0.8,3.3,2
		c0.4,1-0.3,2.9-0.8,4.2c-2.1,5.7-4.7,11.3-6.8,16.5c-1,2.3-1.6,4.7-3,6.3c-1.5-1.8-2.4-4.2-3.5-6.7c-0.5-1-1-2.3-1.5-3.7
		c-0.5-1.2-1.4-2.7-1.4-3.8c0-0.9,0.7-2.5,1.1-3.7c1-2.6,1.8-4.4,2.9-6.8c0.5-1.2,1-2.7,1.6-3.3c0.6-0.6,1.9-0.5,2.1-1.4
		c-1.6-0.4-3.8,0.1-5.5,0c-0.9-0.1-1.9-0.7-2.4,0.1c0.3,0.6,1,0.4,1.4,0.6c2.5,1.2,0.9,4.2,0,6.6c-0.3,0.9-0.7,1.7-1,2.5
		c-0.3,0.9-0.6,2-1.4,2.1c-0.7-0.3-0.8-1.4-1.1-2.3c-0.3-0.7-0.7-1.5-1-2.4c-0.6-1.7-1.8-3.9-1.5-5.3c0.2-1.2,1.5-0.9,2-2
		c-0.8-0.4-2,0.1-3,0.2c-2.2,0.1-4.5-0.2-6.3-0.2c-0.2,0-0.4,0-0.6,0c-0.2,0-0.6-0.1-0.8,0.2c0.4,1.1,1.8,0.5,2.8,0.9
		c2.3,1,3.3,5.3,4.3,7.6c0.6,1.4,1.2,2.6,1.8,4.1c0.4,1.1,1.5,3.5,1.5,4.5c0,0.8-0.6,1.9-1,2.9c-0.9,2.1-1.6,3.7-2.4,5.5
		c-0.4,1-0.5,2.1-1.4,2.6c-1-0.6-1.4-1.8-1.9-2.9c-0.5-1.1-0.9-2.3-1.4-3.4c-2.4-5.5-4.9-11.1-6.9-17c-0.4-1.1-1.1-2.9-0.8-3.8
		c0.3-0.7,1.8-0.5,1.9-1.3c-0.1-0.1-0.3-0.1-0.4-0.1c-0.1,0-0.3,0-0.4,0c-2.6,0-5.9,0-8.4,0c-0.2,0-0.4,0-0.6,0
		c-0.2,0-0.8-0.2-0.6,0.4c0.8,0.6,2,0.4,2.9,0.9c2.1,1.2,3.4,5.7,4.4,8.1c2.4,6.2,4.9,11.8,7.3,17.7c1.3,3.1,2.3,6.1,3.7,8.8
		c0.6-0.5,0.7-1.3,1-2c1.3-3.3,2.7-6.9,4.2-10.3c0.5-1.3,0.8-2.9,2-3.8c1.9,3.9,3.5,8.2,5.3,12.2c0.6,1.3,1,2.8,1.9,3.9
		c0.9-1.3,1.5-2.9,2.1-4.4c3.9-9,7.6-18.5,11.8-27.5c0.7-1.4,1.3-2.9,3.3-3.3c0-0.2,0-0.4,0-0.6C193,26,190.5,26.2,188.5,26.1z"/>
	<path fill-rule="evenodd" clip-rule="evenodd" fill="#8C8D90" d="M106.7,56.5c-1.1-1.4-2.2-2.9-3-4.2c-2-3-4.2-5.8-5.5-8.8
		c0.6-0.8,1.5-1,2.3-1.6c3.7-3.1,5.3-9.2,1.6-13.2c-3.6-3.9-11.9-2.3-18.7-2.5c-1.1,0-2.5-0.4-3.2,0.5c0.9,0.7,3.2,0.8,3.9,2
		c0.8,1.4,0.7,4.8,0.8,7.2C85,41.3,85,46.2,85,51.6c0,2.5,0.1,6-0.6,7.4c-0.3,0.5-0.9,1-1.4,1.3c-0.6,0.4-1.5,0.4-1.8,1
		c0.7,0.5,2,0.2,3,0.1c1.1-0.1,2.3-0.3,3.4-0.3c1.7,0,3.6,0.4,5.2,0.4c0.4,0,1.4,0.3,1.5-0.4C92,60.5,90,60.4,89,58.5
		c-0.8-1.6-0.8-4.3-0.8-6.9c0-2.3-0.4-6.3,0.9-6.9c0.9-0.4,4-0.1,4.8,0.3c1.1,0.4,2.3,2.3,3.2,3.7c1.9,3.2,3.4,5.5,5.3,8.3
		c1.7,2.5,3,4.3,6.4,4.7c1,0.1,2.7,0.4,3.5-0.8c-0.6-0.5-1.4-0.4-2.1-0.8C108.9,59.4,107.7,57.8,106.7,56.5z M91.1,43.1
		c-0.9-0.1-2,0-2.4-0.5c-0.8-0.8-0.4-4.9-0.4-7.1c0-1.9-0.5-5.8,0.3-7.2c0.3-0.5,1.1-0.8,1.6-0.9c0,0,0-0.1,0.1-0.1
		c6.7-0.5,11.1,3.7,10.2,10.3C99.9,41.8,96.2,43.6,91.1,43.1z"/>
	<path fill-rule="evenodd" clip-rule="evenodd" fill="#8C8D90" d="M141.9,55.2c-1.9,2.4-4.2,2.9-8.4,3.5c-2,0.3-7.1,1.3-8.2-0.4
		c-0.5-0.7-0.4-2.1-0.5-3.2c-0.1-1.2-0.1-2.5-0.1-3.7c0-2.6-0.2-5.2,0.3-7.2c1.9-0.6,5.6-0.7,8.1-0.5c1,0.1,2.2,0.2,2.8,0.6
		c1.3,0.9,0.8,2.4,1.9,3.5c0.4-0.5,0-1.4,0-2.3c-0.1-1.9,0-4.2,0-5.9c0-0.5,0.5-1.4-0.3-1.5c-0.4,3.2-2.8,3.5-6.3,3.7
		c-2.2,0.1-4.6,0.4-6-0.3c-0.8-1.7-0.5-4.3-0.5-7.2c0-1.7-0.4-5.9,1-6.7c1-0.6,4.1-0.4,6.4-0.4c3.9,0,6.6,0.3,7.1,3.3
		c0.1,0.4-0.3,1.2,0.3,1.5c0.8-0.6,0.4-1.9,0.5-3c0.1-1.1,0.4-2.3,0.4-3.3c-6.8,0-14.6-0.1-21.6,0c-0.5,0-1.7-0.4-1.9,0.5
		c0.1,0.4,0.7,0.3,1,0.4c2,0.4,3.2,1.6,3.4,3.5c0.3,2.4,0.1,4.9,0.3,7.6c0.1,2.4,0,4.9,0,7.8c0,4.7,0.8,13.3-1.8,14.5
		c-0.7,0.3-2,0-2.1,0.6c1.3,0.7,2.9,0.3,4.5,0.1c1.6-0.1,3.3-0.3,5-0.3c3.5,0.1,7.2,0.6,10.1,0.4c2.3-0.2,3.4-1.6,4.4-3
		c0.8-1.1,1.7-2.5,1.6-3.9C142.5,54.2,142.2,54.9,141.9,55.2z"/>
	<path fill-rule="evenodd" clip-rule="evenodd" fill="#8C8D90" d="M18,26.2c-2.1,0-3.9,0-5.9-0.1c-0.9-0.1-2-0.4-2.6,0.3
		c0.1,0.8,1.3,0.7,2.1,1c1.6,0.5,2.4,1.3,2.7,3.3c0.2,1.3-0.2,2.9-0.2,4.5c0,4.5,0,9.2,0,14c0,6.7,0.4,13,0.1,18.7
		c-0.2,3.4-1.3,8.4-4.1,8.6c-1.7,0.1-2.1-1.5-3.1-1.9C6.1,74.7,6,75.6,6,76.3c0,0.5,0,1,0,1.5C6,78.3,6.3,78,6.6,79
		c0.6,0,1.2,0,1.8,0C18.5,76,18,64,18,51.1c0-5.3-0.1-11.6-0.1-17.2c0-2.8-0.2-5.4,1.5-6.5c0.4-0.3,1.3-0.1,1.5-0.8
		C20.4,26,19,26.2,18,26.2z"/>
	<path fill-rule="evenodd" clip-rule="evenodd" fill="#8C8D90" d="M28.8,56.1c-0.9,1.2-2.1,2-2.8,3.4c0.8,1.1,2,1.8,2.8,3
		c1.2-0.9,2.2-2,3-3.3C30.9,58.1,30,56.9,28.8,56.1z"/>
</g>
</svg>
