<?xml version="1.0" encoding="utf-8"?>
<!-- Generator: Adobe Illustrator 16.0.4, SVG Export Plug-In . SVG Version: 6.00 Build 0)  -->
<!DOCTYPE svg PUBLIC "-//W3C//DTD SVG 1.1//EN" "http://www.w3.org/Graphics/SVG/1.1/DTD/svg11.dtd">
<svg version="1.1" id="Layer_1" xmlns="http://www.w3.org/2000/svg" xmlns:xlink="http://www.w3.org/1999/xlink" x="0px" y="0px"
	 width="152px" height="39px" viewBox="0 0 152 39" enable-background="new 0 0 152 39" xml:space="preserve">
<g>
	<path fill="#FFFFFF" d="M2,5h4v24c0,3.2-3.1,4.6-4.5,5.4L3,38.1c4.1-1.6,8-2.8,8-9.1V5h3V1H2V5z"/>
	<path fill="#FFFFFF" d="M32.3,0.3c-8.7,0-14.9,6.1-14.9,14.9s6.2,14.9,14.9,14.9c8.7,0,14.9-6.1,14.9-14.9S41,0.3,32.3,0.3z
		 M32.3,25.6c-5.4,0-9.3-3.9-9.3-10.3c0-6.4,4-10.4,9.3-10.4c5.3,0,9.3,4,9.3,10.4C41.7,21.7,37.7,25.6,32.3,25.6z"/>
	<path fill="#FFFFFF" d="M69.8,14.9c4-1.2,5.4-3.7,5.4-6.5c0-4.8-4.3-7.4-10.7-7.4H50v4h5v20h-5v4h15.2c7.1,0,10.9-2.8,10.9-7.4
		C76.1,18.3,74.2,16,69.8,14.9z M59,5h5.5c3.2,0,5.3,1.4,5.3,3.9c0,2.5-2.1,4.1-5.7,4.1H59V5z M65,25h-6v-8h5.9c3.8,0,5.8,1.5,5.8,4
		C70.6,23.7,68.5,25,65,25z"/>
	<polygon fill="#FFFFFF" points="79,5 84,5 84,25 79,25 79,29 93,29 93,25 89,25 89,5 93,5 93,1 79,1 	"/>
	<polygon fill="#FFFFFF" points="96,5 101,5 101,25 96,25 96,29 110,29 110,25 106,25 106,18 116,18 116,13 106,13 106,5 115,5 
		115,9 120,9 120,1 96,1 	"/>
	<polygon fill="#FFFFFF" points="138,1 138,5 141.9,5 135.9,14.6 129.8,5 134,5 134,1 121,1 121,5 123.8,5 133,19.7 133,25 129,25 
		129,29 142,29 142,25 139,25 139,19.4 147.7,5 151,5 151,1 	"/>
</g>
</svg>
