<svg xmlns="http://www.w3.org/2000/svg" xmlns:xlink="http://www.w3.org/1999/xlink" version="1.1" id="Layer_1" x="0px" y="0px" width="200px" height="100px" viewBox="0 0 200 100" enable-background="new 0 0 200 100" xml:space="preserve"><g><path fill="#8C8D90" d="M189.1 65l0-0.4c0-0.3-0.1-0.3-0.2-0.4c0.1-0.1 0.3-0.2 0.3-0.5c0-0.4-0.3-0.5-0.7-0.5h-0.9v2h0.3v-0.9h0.6 c0.3 0 0.4 0.2 0.4 0.4c0 0.1 0 0.4 0 0.5h0.3v0C189.1 65.2 189.1 65.1 189.1 65z M188.4 64.2h-0.6v-0.7h0.7c0.1 0 0.4 0 0.4 0.3 C188.8 64.1 188.6 64.2 188.4 64.2z"/><path fill="#8C8D90" d="M39.7 25.4c0-1-0.7-1.6-1.5-1.6c-3 0-5.5 3.2-16.8 9.1c-10.2 5.3-14 8.1-14 12c0 2.2 1.3 3.9 3.4 3.9 c6.1 0 10.9-12 14.9-12c0.3 0 0.5 0.2 0.5 0.5c0 2.9-9 12.2-10.4 13.4c-7.9 7.3-10 9.2-10 13.2c0 2.4 1.7 4.2 4.1 4.2 c5.1 0 8.1-4.5 16.4-19.7C37.9 27.2 39.7 28.1 39.7 25.4z"/><path fill="#8C8D90" d="M172.8 39.4c0 1.3-1.5 2.3-1.5 3.2c0 0.5 0.6 0.8 1.2 0.8c3.9 0 7.5-5.7 7.5-8.7c0-2.4-2.1-4.4-4.6-4.4 c-2.8 0-5.1 2.4-5.1 5C170.3 38 172.8 37.7 172.8 39.4z"/><path fill="#8C8D90" d="M34.3 66.4c0-4.7 3.2-12.6 3.2-17.4c0-1.7-0.4-2.6-1.2-4.1l-0.2-0.2c8.7-4.6 14.7-9.5 19.7-14.1 c4.7-4.4 6.8-7.5 6.8-10.7c0-2.8-1.4-4.3-4-4.3c-7 0-13.4 19-27 25.6l-2.9 4.7c0.5 1.1 0.7 1.7 0.7 2.6c0 3.6-4.6 9.3-4.6 16.9 c0 4.5 2.9 8.2 7.5 8.2c2.5 0 5.1-1.6 5.3-3.4C35.5 70.2 34.3 68.5 34.3 66.4z"/><path fill="#8C8D90" d="M140.2 59.9c0-0.6-0.2-1-0.6-1c-1 0-3.2 3-5.5 3.8c2-3.5 2.5-3.8 5.2-8.1c3-4.7 4-7 4-8.7 c0-1.7-1.1-2.5-2.2-2.5c-7.1 0-8.5 14.7-14.5 14.7c-1.1 0-1.7-0.6-1.7-1.3c0-6.2 11.7-10 11.7-12.4c0-1.2-0.9-1.7-2.5-1.7 c-2.7 0-7.1 3-12.1 3c-3.4 0-6-1.6-8.1-1.6c-5.1 0-3.7 15-10.2 15c-1.4 0-2.3-0.9-2.3-2.2c0-6 9.2-10.4 9.2-11.8c0-1.2-1.1-2-2.5-2 c-7.6 0-15.4 9.5-15.4 17.3c0 4.3 2.4 7.3 7.1 7.3c3.9 0 7.4-2 10.8-7c5.3-7.7 3.5-11.6 5.3-11.6c1.2 0 2.5 0.9 6.2 0.9h0.2 c-4.5 4-6.4 6.5-6.4 9.9c0 3.2 1.9 5 5 5c1.8 0 4.8-1.2 7.1-2.7l0.2-0.2l-2.3 3.7c-9.4 3.4-19.4 7.1-19.4 15c0 2.5 2.1 4.3 4.4 4.3 c7.7 0 14.1-8.5 19.1-15.4C134 68 140.2 63.6 140.2 59.9z M121.7 72.1c-2.8 4-6 6.7-7.4 6.7c-0.6 0-0.9-0.4-0.9-0.9 c0-2.2 5.8-5.2 8.5-6.1L121.7 72.1z"/><path fill="#8C8D90" d="M189.6 40c-7.7 0-16.3 11.4-28.2 18.8l-0.2 0.1c4.1-6.5 5.5-9.1 5.5-10.9c0-1.1-0.9-2.1-2.5-2.1 c-4.7 0-6.9 11.1-12.2 11.1c-1.2 0-1.7-0.7-1.7-1.5c0-6.2 13.5-9.3 13.5-11.7c0-1.3-1.3-1.7-2.6-1.7c-8.4 0-19.8 9.3-19.8 17.5 c0 3.1 2.1 5.1 5.4 5.1c2 0 2.6-0.4 6.3-2.8l0.2-0.2l-1.7 2.7c-6.1 3-8.6 3.5-11.8 5.7c-4.7 3.2-7.1 7.3-7.1 10.4 c0 2.6 2.1 4.6 4.3 4.6c3.3 0 7.9-2.8 11.7-6.8c1.5-1.6 2.9-3.4 4.3-5.4c1.3-2 3-5 3.6-5.9c3.5-1.5 8.6-5.2 11.3-7.1l0.2-0.2 c-0.5 1.4-0.6 2.3-0.6 2.9c0 3.6 2.8 5.8 6.8 5.8c7 0 13-8.1 13-14.9c0-1-0.1-2.4-0.1-3.4c0-6.9 5.6-2.4 5.6-6.9 C192.9 41.2 191.7 40 189.6 40z M148 71.1c-2.3 4.3-6.7 7.6-7.7 7.6c-0.4 0-0.8-0.3-0.8-0.8c0-2.5 4.8-5.1 8.7-7L148 71.1z M182 49.6c-1 5.3-2.4 10.7-5.1 10.7c-2 0-0.5-3.3-3.4-3.3c-0.3 0-0.6 0.1-1.2 0.2l9.7-8V49.6z"/><path fill="#8C8D90" d="M188.2 62.4c-1 0-2 0.8-2 1.9c0 1.1 0.9 1.9 2 1.9c0.9 0 2-0.8 2-1.9C190.2 63.2 189.3 62.4 188.2 62.4z M188.2 65.9c-0.9 0-1.7-0.7-1.7-1.6s0.7-1.6 1.7-1.6c0.9 0 1.7 0.7 1.7 1.6C189.9 65.2 189 65.9 188.2 65.9z"/><path fill="#8C8D90" d="M88.3 59.4c-1.7 0-3.3-1.3-3.3-3.3v-0.3c11-9.6 22.1-26.2 22.1-32.8c0-1.8-1.2-3.2-3.4-3.2 c-3.6 0-10.3 5.3-16 12.9c-5.8 7.7-8.6 14.3-9.9 21.5l-0.1 0.3c-3.5 2.6-6 4-8.9 4c-1.3 0-2.3-0.8-2.6-2.1l-0.1-0.4 c8.1-7.5 19.7-20.8 19.7-28.2c0-1.8-1.3-3.4-3.6-3.4c-4 0-10 4.4-15.1 11.1c-5 6.6-7.5 13.4-8.5 20.3l-0.1 0.3 c-2.8 2.1-6.5 4.3-8.8 4.3c-0.7 0-1.1-0.2-1.5-0.7c5.8-3.8 9.7-8.8 9.7-14.2c0-2.4-1.6-4.1-4.1-4.1c-6.8 0-13.7 9.7-13.7 16.8v0.5 c-5 2.2-4.7 2.2-4.7 3.4c0 1.2 1.1 2.1 2.7 2.1c0.9 0 2-0.2 3-0.6l0.2-0.1c1.7 2.1 2.9 3.2 6.1 3.2c4.3 0 6.6-1.3 11.5-4.7l0.2-0.2 c1.2 2.8 3.2 4.8 6.2 4.8c4 0 6.2-1.3 12-5.1l0.3-0.2c0.6 3.6 2.4 5.9 6.1 5.9c3.2 0 7.2-3.4 7.2-7.8c0-0.4 0.1-0.6 0-0.9 C89.6 59.2 89.2 59.4 88.3 59.4z M85.5 47.6c2.3-7 9.2-18.3 12.2-18.3c0.3 0 0.6 0.3 0.6 0.8c0 2.5-6.2 11.3-12.8 17.7L85.5 47.6z M47 55.4V55c0-2.8 2.5-7.7 4.7-7.7c0.6 0 0.8 0.2 0.8 0.6C52.5 50.4 49 54.2 47 55.4z M66 49.1c0.6-3.2 1.9-5.8 4.3-9.4 c2.6-3.8 5.7-7.3 7-7.3c0.3 0 0.6 0.3 0.6 0.8c0 1.1-4.9 9.7-12 16.3L66 49.1z"/></g></svg>