<?xml version="1.0" encoding="utf-8"?>
<!-- Generator: Adobe Illustrator 16.0.4, SVG Export Plug-In . SVG Version: 6.00 Build 0)  -->
<!DOCTYPE svg PUBLIC "-//W3C//DTD SVG 1.1//EN" "http://www.w3.org/Graphics/SVG/1.1/DTD/svg11.dtd">
<svg version="1.1" id="Layer_1" xmlns="http://www.w3.org/2000/svg" xmlns:xlink="http://www.w3.org/1999/xlink" x="0px" y="0px"
	 width="200px" height="100px" viewBox="0 0 200 100" enable-background="new 0 0 200 100" xml:space="preserve">
<g>
	<path fill="#8C8D90" d="M46.6,43.9c4.8,0.3,7.3-9.4,0.3-7.7C43,37.2,42.4,43.6,46.6,43.9z"/>
	<path fill="#8C8D90" d="M189.2,64.3c0.4-5.4,2-9.5,3.2-14c1.8-0.2,4.2,0.1,5.4-0.6c0.6-1.1,1.4-2.7,1-4.7c-1.8,0-3.6,0-5.4,0
		c0.7-3,2.5-6.5,1.6-10.9c-2.5-12.5-25.4-10-24.6,5.2c0.1,2.2,1,3.2,1.6,5.8c-8.4-1.3-13.4,6.1-9.6,11.8c2.5,3.7,11.4,3.1,11.2,7
		c-0.3,3.8-8.3,2.5-9.9,0.3c0.4-1.1,1-2.3,0.3-3.5c-3.3-3.1-4.6,0.9-6.4,2.6c-4.3,3.9-15.2,4.4-14-3.5c8.3,2.3,17.2-1.7,15.3-9.9
		c-2-8.6-15.9-3.8-18.8,0c-1.2,1.6-1.2,4.7-3.5,4.5c3.6-10.1-9.3-11.3-12.4-5.3c-0.1-1.3,1-2.1,0.3-3.1c-1.9,0-3.8,0-5.7,0
		c-2,4-1.3,8.7-3.5,13.6c-2.6,5.7-16.4,10.7-16.6,0.3c7.1,2,17.4-0.8,15.3-9.9c-1.7-7.3-14-5.5-18.5-0.3c-2.2,2.6-2.5,5.4-3.5,9.2
		c-0.8,2.9-4.6,9.5-7.7,5.4c0.4-5.4,2-9.5,3.2-14c1.7-0.2,4,0.1,5.1-0.6c0.7-1.1,1-2.7,1-4.7c-1.7,0-3.4,0-5.1,0
		c0.8-2,1.6-5.6,2.2-8.7c-1.9-0.8-4.2,0.3-6.1,0.5C83.3,39.2,83.3,43,82,45c-1.3,0-2.6,0-3.8,0c-0.8,2-1.1,3-1.3,4.7
		c0.7,0.8,3.4-0.1,4.1,0.8c-2.4,5.1-1.1,15.5-8.3,14.7c-2.4-5.6,5.6-14.1,0.3-18.8c-2.9-2.6-9-0.5-11.2,1.4c0.1-0.7,0.6-1.8,0-1.8
		c-1.9,0-3.8,0-5.7,0c-1.6,4-2.9,15.5-6.4,18.4c-1.4,1.2-4.1,2.2-4.8-0.1c0.6-6.8,2.8-12.1,4.1-18.2c-1.4-0.7-4.1-0.2-6.1-0.3
		c-0.7,6-10,24.1,0,24.9c3.5,0.3,5.5-2,7.3-2.9c0.1,1-0.7,1.2,0,2.2c1.9,0,3.8,0,5.7,0C59.6,63,57,50.4,67,50.2
		c4,3.6-4.1,13.3-0.6,18.5c2.4,3.7,9,1.5,11.8-1.3c2.6,6.3,12.6,1.7,14.4-2.2c2.7,7.9,16.9,5.4,20.7,1.3c0.1,1.3-1.1,2.5-0.3,3.5
		c1.8,0,3.6,0,5.4,0c3.3-7,2.6-20.4,12.1-19.8c0.3,0.8,0.4,1.7,0.3,2.9c-2.6-0.1-3.8,0.8-3.8,2.6c-0.1,5.1,7.4,0.7,9.9,2.9
		c-3.2,13.6,15.5,14.5,22,8c4.8,6.8,22.2,5.3,20.7-5.1c-0.8-5.7-12.9-5.9-12.4-9.9c0.2-2.1,3.8-3.1,6.4-1.9c1.9,0.8,3.4,5.5,6.4,2.6
		c0.9-6.1-4.5-6.2-5.4-11.2c-1.2-6.5,2.8-10.9,6.4-11.4c8.3-1.3,10.5,8.4,6.1,15.4c-1.3,0-2.6,0-3.8,0c-0.7,2-1,3.1-1.3,4.7
		c0.7,0.8,3.4-0.1,4.1,0.8c-0.3,5.3-6.5,14.7-1.9,18.9c5.1,4.6,14.9-2.1,14-8.3C193.8,60.4,193.3,68.8,189.2,64.3z M152.5,52.2
		c0.8,3.9-4.4,5.9-8.6,4.1C142.8,51.3,151.6,47.3,152.5,52.2z M106.9,50.6c2.5,4.8-3.5,7.8-8,5.7C99.1,52.1,102.6,48.6,106.9,50.6z"
		/>
	<path fill="#8C8D90" d="M39.9,40c-1.4-9.9-11.2-14.9-21.7-13.7C9.9,27.3,1.7,34,1.3,43.6c-0.2,5.9,1.4,10.2,7,11.5
		c2.4-4.3-0.8-5.2-1.3-8.3C5,34.1,21.6,25.5,30.3,34.3c6,6.1,2.1,24.9-7.7,23c-9.3-1.9,4.6-16.8-2.9-19.8c-6-2.4-9.2,7.3-6.4,12.1
		c-1.7,8.3-5.3,16.1-3.8,26.5c4.7-3.4,6.3-10,7.7-16.9c2.4,1.4,3.7,3,6.7,3.2C35.2,63.2,41.4,51.2,39.9,40z"/>
</g>
</svg>
