<svg xmlns="http://www.w3.org/2000/svg" xmlns:xlink="http://www.w3.org/1999/xlink" version="1.1" id="Layer_1" x="0px" y="0px" width="200px" height="100px" viewBox="0 0 200 100" enable-background="new 0 0 200 100" xml:space="preserve"><g><path fill-rule="evenodd" clip-rule="evenodd" fill="#8C8D90" d="M119.4 15.9c4.4 1.1 3.1 4.3 5.5 4.3c3.1 0 5.7-3.6 5.7-5.6 c0-3.4-3.5-6.7-6.6-6.7c-2.3 0-5.9 2.7-5.9 6.2C118 14.9 118.4 15.5 119.4 15.9z"/><path fill-rule="evenodd" clip-rule="evenodd" fill="#8C8D90" d="M101 26.4c-3 0-5.8 3.4-5.8 6.4c0 2.8 1.3 4.8 3.5 4.8 c2.4 0 6-5.9 6-6.3C104.8 27.9 102.7 26.4 101 26.4z"/><path fill-rule="evenodd" clip-rule="evenodd" fill="#8C8D90" d="M117.4 40.1c2.2 0 4-2.1 4-5c0-3.7-2.6-6.6-4.9-6.6 c-1.8 0-3.4 1.6-4.2 4.4l-0.1 0.2c1.3 1.8 1.3 2 2.1 4.1C114.9 39.1 115.7 40.1 117.4 40.1z"/><path fill-rule="evenodd" clip-rule="evenodd" fill="#8C8D90" d="M102.8 42.4c0 0.6 0.5 0.9 2 1.5c1.6 0.6 1.2 1.8 1.9 1.8 s0.5-1 2.3-1.3c1.8-0.3 2.1-0.4 2.1-1.2c0-0.9-1.2-2.2-6.5-2.2C103.5 41 102.8 41.4 102.8 42.4z"/><path fill-rule="evenodd" clip-rule="evenodd" fill="#8C8D90" d="M71.7 48.5c0 3.2 2.5 9.2 4.7 12c1.7 2.2 4.4 3.4 7.5 3.4 c2.4 0 4.1-0.8 4.1-2.1c0-0.9-1.3-3.1-1.3-8.1l4.3 8.3c4.1 7.7 7.2 10.2 14 10.2c2.9 0 4.7-0.9 4.7-2.3c0-1.2-2.3-4.1-2.3-12.2 c0-3.7 0.9-5.6 2.9-5.6c1.5 0 2.2 1.3 2.2 4.1c0 4.2-1 8.8-1 10.2c0 1.7 1.3 2.7 3.8 2.7c4.3 0 8.2-2.7 10.3-6.6 c3.1-5.8 5.3-17.1 5.3-22.6c0-4.5-1.1-9.2-2.3-11.5c0 11.2-5.4 16.3-13.7 16.3c-3.2 0-1.6 3.1-4.9 3.1c-1.3 0-2.1-1.4-3.7-1.4 c-0.9 0-1.8 0.5-2.8 0.5c-3.3 0-2.6-3.6-3.7-4.1c-4.6-1.9-4.7-1.9-5.6-2.4c-3.4-2.3-4.9-5.6-4.9-10.4c0-4.8 1.9-11.1 4.9-13.8 c0.9 0.6 1.5 0.9 2 0.9c1.2 0 1.6-1.6 4.2-2.6c3.3-1.2 3.3-1.2 3.3-2.9c0-4.5-2.7-7-5.5-7c-3.7 0-7.3 3.1-7.3 6c0 1.5 0.9 3 2 4.2 c-6.4 3.9-10.2 10-10.2 17.4c0 2.5 0.4 3.4 0.4 5.2c0 2.1-0.8 3.4-0.8 5.4c0 1 0.4 3 1.1 4.2c-6.1-4.5-9.5-10.4-9.5-17.2 c0-6.7 3.2-12.1 8.8-16l0.4-0.3c-7.7 3.2-12.9 11.2-12.9 21.3c0 5.2 1.6 8.4 1.6 9.9C71.9 45.3 71.7 46.7 71.7 48.5z M110 48.5 c-0.6 1-1.6 1.6-3.2 1.6c-1.9 0-3.7-1.2-4-2.6C105.5 48.2 107.6 48.5 110 48.5z"/><path fill-rule="evenodd" clip-rule="evenodd" fill="#8C8D90" d="M129.7 65.9c-1.2 0-2.1 0.9-2.1 2c0 1.1 0.9 2.1 2.1 2.1 c1.2 0 2.1-0.9 2.1-2.1C131.8 66.9 130.9 65.9 129.7 65.9z M129.7 69.6c-1 0-1.7-0.7-1.7-1.7c0-0.9 0.8-1.6 1.7-1.6 c0.9 0 1.7 0.7 1.7 1.6C131.4 68.9 130.6 69.6 129.7 69.6z"/><path fill-rule="evenodd" clip-rule="evenodd" fill="#8C8D90" d="M130.8 67.4c0-0.2-0.1-0.3-0.3-0.4c-0.2-0.1-0.4 0-0.6 0h-1v2l0 0 v-1h0.7l0.7 1h0.4l-0.7-1C130.5 68 130.8 67.9 130.8 67.4z M129.7 67.8h-0.4v-0.7h0.6c0.3 0 0.6 0 0.6 0.3 C130.4 67.8 130 67.8 129.7 67.8z"/><path fill-rule="evenodd" clip-rule="evenodd" fill="#8C8D90" d="M118 79.8c1 0 2 0.3 2 1.4v11.1c0 1.2-1 1.6-2 1.6V94h9v-0.1 c-2 0-2-0.3-2-1.6V87h0.6c1.5 0 2.2 1 2.2 3h0.2v-7h-0.2c-0.1 2-0.5 3-2.2 3H125v-6h1.8c2.3 0 3.6 1 3.6 3h0.6v-4h-13V79.8z"/><path fill-rule="evenodd" clip-rule="evenodd" fill="#8C8D90" d="M90 79.8c1 0.1 1 0.5 0.7 1.6l-2.7 7.4l-2.2-7.1 c-0.2-0.8-0.8-1.8 1.2-1.8V79h-8v0.8c1 0 1.4 0 2.4 3.2l-2 5.7L77 81.6c-0.2-0.8 0-1.8 1-1.8V79h-7v0.8c1 0 1.2 0.2 2.2 3.4 L77.1 95h1.3L82 84.8L85.4 95h1.3l4.4-13c0.5-1.6 0.9-2.1 1.9-2.1V79h-3V79.8z"/><path fill-rule="evenodd" clip-rule="evenodd" fill="#8C8D90" d="M113 79.8c1 0.1 1.3 0.5 1 1.6l-2.6 7.4l-2.4-7.1 c-0.2-0.8-0.1-1.8 0.9-1.8V79h-7v0.8c1 0 1.3 0 2.3 3.2l-2.1 5.7l-2.3-7.1c-0.2-0.8 0.1-1.8 1.1-1.8V79h-7v0.8c0 0 1.1 0.2 2.1 3.4 l3.7 11.8h1.3l3.7-10.2l3.4 10.2h1.3l4.6-13c0.5-1.6 1-2.1 2-2.1V79h-4V79.8z"/></g></svg>